<?xml version="1.0" encoding="UTF-8"?>
<svg width="180.4mm" height="148.9mm" version="1.1" viewBox="0 0 180.4 148.9" xmlns="http://www.w3.org/2000/svg" xmlns:cc="http://creativecommons.org/ns#" xmlns:dc="http://purl.org/dc/elements/1.1/" xmlns:rdf="http://www.w3.org/1999/02/22-rdf-syntax-ns#">
 <metadata>
  <rdf:RDF>
   <cc:Work rdf:about="">
    <dc:format>image/svg+xml</dc:format>
    <dc:type rdf:resource="http://purl.org/dc/dcmitype/StillImage"/>
    <dc:title/>
   </cc:Work>
  </rdf:RDF>
 </metadata>
 <g transform="translate(-22.57 -84.47)" fill="#d2d2d2" stroke="#0015c3" stroke-width=".2646px">
  <path d="m117.3 184.2s0.6034 0.22 0.9623 0.3116c0.359 0.0917 1.085 2.405 1.085 2.405s1.375 0.2823 1.749 0.6269c0.3742 0.3446 1.001 2.046 1.001 2.046l2.1 2.207 2.291 1.349 0.8936 2.016 0.7714 0.7222 0.359 4.553s2.543 3.659 3.07 3.64c0.527-0.0183 5.552 3.402 5.552 3.402l1.856-0.121 1.573-3.336 2.391-2.357 2.238-0.0403 5.4 0.8762 1.413 1.83 2.536 2.372 1.023 2.695 1.94 5.195 1.604 0.7222 2.1 3.86 1.398 0.4802 0.3437 1.276-0.4735 1.448 0.4353 2.405 1.291 0.8689s0.3055 2.988 0.5881 3.087 8.531 3.035 8.531 3.035l2.91 1.316s2.299 0.7332 1.627-1.056c-0.6721-1.789-1.772-5.719-1.772-5.719l1.123-3.86 0.275-2.607-0.2368-1.298s0.1909-0.7882 0.5194-0.7955c0.3284-7e-3 1.596-0.1173 1.596-0.1173l0.7485-1.393 1.451-0.22 4.02-3.017s3.315-1.73 3.666-1.877c0.3513-0.1466 3.429-2.379 3.429-2.379l2.307-1.793s1.199-1.213 1.55-1.32c0.3513-0.1063 2.673-1.016 2.956-1.052 0.2826-0.0367 1.673-0.6599 1.673-0.6599l0.779-5.822-0.1909-1.081 0.7561-1.345 0.336-4.337-2.062-3.167-1.253-3.618-0.2896-10.09-0.9776-0.5426-1.085 0.2493-1.344-0.308-1.382-0.6929-1.963-1.466s-1.107-0.209-1.375-0.055c-0.2673 0.154-0.7714 0.5169-0.7714 0.5169s-3.009-0.1466-3.276-0.1723c-0.2673-0.0257-1.283 0.4106-1.283 0.4106l-0.5652 0.6636-3.147-0.8175-1.184-0.7185-1.085 1.074-1.466 0.2236-0.7714-0.6012-0.3666-0.7442-1.421-0.044-1.092 0.6526-1.329-1.492-1.077-1.008-1.634 0.5352-4.46-1.551-0.0382-1.151-2.841 0.0403-1.894-1.789 0.7719-15.1-19.19-0.5756-2.574 34-23.43-1.826z"/>
  <path d="m143.5 145.7-0.0584 4.188-0.4776 0.1287-2.574 34-23.43-1.826 0.3088 2.029-10.32-1.493-0.486 3.487-5.792-0.9678s5.826-43.61 6.096-43.55c0.27 0.0544 36.74 4.013 36.74 4.013z"/>
  <path d="m76.44 136.5c-0.1222 0.1906-1.497 7.449-1.497 7.449l-0.7561 0.0953-0.5346-0.8725-1.818-0.5096-0.9089 0.8175-0.9241 8.245-0.04583 1.463 0.9929 1.169 0.168 2.079 0.7103 0.7039-0.2979 1.206-1.657 0.4729-0.7943 1.287-0.336 2.658-1.81 1.048-0.2368 3.076 1.207 0.2273-0.1528 1.639-2.559 0.5866-0.1757 0.8322 1.245 0.7992 20.96 12.54 13.49 1.748 6.046-43.71z"/>
  <path d="m28.16 84.62-1.447 2.12-0.05401 3.323-1.242 2.779-1.966 1.903-0.7453 1.975 0.09721 1.457 1.75 3.054 0.1512 2.561-1.113 1.073-0.2376 4.5 1.588 2.442 1.307 2.338-0.324 2.509 2.074 1.986-0.4621 3.471v2.758l2.538 1.607-0.3132 2.074-1.577 1.208 0.07561 2.26 5.725 10.14-1.134 4.448 1.048 1.156 2.949 0.6481 2.311 0.534 2.214 3.5 2.743 0.9799 0.5401 2.68 2.322 0.451 3.597 5.133 0.06481 4.956s10.95 1.483 11.33 1.612c0.378 0.1296 5.149-0.0553 5.149-0.0553l0.7763-1.134-1.207-0.2273 0.2368-3.076 1.81-1.048 0.336-2.658 0.7943-1.287 1.657-0.4729 0.2979-1.206-0.7103-0.7039-0.168-2.079-0.9929-1.169 0.04583-1.463-25.47-38.05 5.963-22.5z"/>
  <path d="m50.49 91.13 33.81 7.478-7.862 37.85-1.497 7.449-0.7561 0.0953-0.5346-0.8725-1.818-0.5096-0.9089 0.8175-0.9241 8.245-25.47-38.05z"/>
 </g>
</svg>
